<svg xmlns="http://www.w3.org/2000/svg" width="266" height="266">
<!-- Copyright © 2010 Kristian Høgsberg

     Permission to use, copy, modify, distribute, and sell this
     software and its documentation for any purpose is hereby granted
     without fee, provided that the above copyright notice appear in
     all copies and that both that copyright notice and this permission
     notice appear in supporting documentation, and that the name of
     the copyright holders not be used in advertising or publicity
     pertaining to distribution of the software without specific,
     written prior permission.  The copyright holders make no
     representations about the suitability of this software for any
     purpose.  It is provided "as is" without express or implied
     warranty.

     THE COPYRIGHT HOLDERS DISCLAIM ALL WARRANTIES WITH REGARD TO THIS
     SOFTWARE, INCLUDING ALL IMPLIED WARRANTIES OF MERCHANTABILITY AND
     FITNESS, IN NO EVENT SHALL THE COPYRIGHT HOLDERS BE LIABLE FOR ANY
     SPECIAL, INDIRECT OR CONSEQUENTIAL DAMAGES OR ANY DAMAGES
     WHATSOEVER RESULTING FROM LOSS OF USE, DATA OR PROFITS, WHETHER IN
     AN ACTION OF CONTRACT, NEGLIGENCE OR OTHER TORTIOUS ACTION,
     ARISING OUT OF OR IN CONNECTION WITH THE USE OR PERFORMANCE OF
     THIS SOFTWARE. -->
<!-- Created with Inkscape (http://www.inkscape.org/) -->
<!-- Edited by Federico Pedemonte -->
  <path fill="#ffbc00" d="M255.714 133.143C255.714 200.995 200.71 256 132.857 256S10 200.995 10 133.143 65.005 10.286 132.857 10.286 255.714 65.29 255.714 133.143z"/>
  <path fill="#fff" d="M197.868 11.522h2.152l-1.37 1.633h-.782v-1.633m-158.42 3.966v1.867l-5.084 7.466h-.782l-.782-5.83c2.998-2.33 5.215-3.5 6.65-3.5m185.408 2.57c4.433 0 6.91 3.35 7.432 10.03l-3.716 31.5h1.37l2.933-2.33h.782v.7c-4.05 2.95-7.96 11.04-11.74 24.26-1.44 11.36-3.85 21.86-7.24 31.5-3 9.96-4.5 19.13-4.5 27.53l-5.68 16.57c0 1.4 2.15 2.8 6.45 4.2-.78 3.27-1.96 4.9-3.52 4.9v.94h1.37v.7c0 1.71-2.22 2.57-6.65 2.57l.78.94v3.27h-1.37c.91 3.27 2.87 4.9 5.86 4.9v1.638h-5.87v.93c1.954 0 2.932 1.4 2.932 4.2l-8.214 3.263.78.93v.7c0 1.09-.974 1.63-2.93 1.63v.937c2.48 0 3.715.544 3.715 1.632-3.52 1.4-8.15 8.32-13.886 20.76-5.868 11.045-10.95 16.567-15.256 16.567h-1.563c-3.26-2.49-5.93-10.73-8.012-24.73-8.346-21.31-12.518-33.83-12.518-37.56 0-9.642-2.678-19.91-8.02-30.795-1.438-4.82-2.41-10.89-2.938-18.2l-3.52-.93c-8.864 16.02-13.49 28.54-13.883 37.56-2.48 5.29-4.436 11.67-5.87 19.13 5.345 1.716 8.02 3.35 8.02 4.9v.937c-4.174-.62-7.108-1.79-8.8-3.5-1.83 4.2-4.24 15.87-7.24 35-2.348 8.865-5.28 13.3-8.8 13.3-9.91-3.89-18.19-10.268-24.84-19.13-1.04 0-2.738-4.436-5.085-13.3-1.438 0-2.415-4.43-2.937-13.3-4.95-12.598-8.34-26.985-10.17-43.16v-24.27h-.78l-3.52.933v-.937c0-1.09 1.177-1.632 3.52-1.632l-.78-14V88.76l-5.65-35.01V38.82c2.476-9.333 6.78-14 12.907-14h41.07v1.634c-3.26.155-5.476 1.01-6.65 2.566-2.477-1.71-4.89-2.566-7.236-2.566h-8l-4.5.7-.78-.7h-.59l-5.87.7-2.934-.7-2.15.7-2.35-.7c9.52 12.443 15.126 22.94 16.82 31.496h6.65v1.633h-5.09v1.866c1.956 7.15 3.39 10.73 4.303 10.73h1.564l3.52-.94.78.93.78-.94.78.93v.7c-2.61 1.87-4.37 4.43-5.28 7.7h-.59v1.64h1.37c1.82 25.97 5.21 45.65 10.17 59.02l2.93 2.33h1.56c1.95 0 6.06-9.1 12.32-27.3 4.04-8.25 6.97-15.48 8.8-21.7l-.78-2.56c4.04-6.07 8.21-9.1 12.52-9.1h1.37c2.74 0 4.69 1.71 5.86 5.13 3.65 5.13 6.58 12.83 8.8 23.094l10.95 24.26c1.43 1.71 2.15 3.656 2.15 5.833 4.04 9.173 7.69 15.24 10.95 18.194h2.35c2.74 0 6.39-11.36 10.956-34.07.784 0 2.935-6.07 6.456-18.2v-.933l-12.326-1.63-2.93.937h-3.715v-1.87l7.43-.7h14.47c5.61-20.065 10.76-35.62 15.45-46.66 1.57-22.71 3.72-34.064 6.457-34.064l8.8-4.2m-41.654 2.57c-.787 2.18-2.48 3.27-5.09 3.27v-1.63l5.087-1.637m-73.733 4.2h19.75v1.633l-4.5.7-4.3-.7-3.717 1.63-1.37-1.63h-5.866V24.8M6.594 28.09h2.15l1.37 1.632v.94l-4.306 4.9v4.2H4.25v-2.57l.782-.7v-.932l-3.717-4.2c.913-2.177 2.673-3.266 5.28-3.266m143.75 10.03h2.153v.7c0 1.09-.712 1.634-2.15 1.634l-.78.933v.93l-2.15-.94v-1.63l2.93-1.63m-10.95 9.1v.94c0 1.25-3.13 2.57-9.39 3.97V50.5l4.303-2.334.78.7h.59l3.72-1.63m-127.72 8.4v.7l-1.56 1.63-.58-.7v-.93l.585-.7h1.567m106.59 0v.7c-2.734 2.488-7.17 4.744-13.3 6.765v-1.64c1.048 0 1.57-.85 1.57-2.56l11.73-3.27m37.16 8.168l.78.935v.7l-1.37 1.866h-.78l-1.57-1.867v-.7l2.93-.937m26.99.932h.78v.7l-1.37 1.866h-.78v-.932l1.37-1.64M170.1 76.38l2.93 2.33c-.524 1.71-1.96 2.56-4.305 2.56l-1.57-2.56c0-.78.98-1.56 2.934-2.336m17.6 10.737l.585.934v.7l-.583.932h-1.562v-.94l1.565-1.633m-27.77 8.4v.694l-3.72 3.5h-2.15v-.93c0-1.4 1.95-2.49 5.864-3.263M38.65 127.94h.782v.7c-1.96 5.13-3.655 8.243-5.09 9.33H32.8v-3.5l5.867-6.53m95.638 38.96h.782v1.635l-5.867 3.5-.782-.937v-1.634l5.867-2.567m-80.383 10.97h1.37l2.346 9.1h-1.565l-2.15-8.4v-.7m78.23 10.73h.587l2.347 2.567-.782.7h-.782l-1.37-2.333v-.93" style="line-height:125%" font-size="437.474" font-weight="bold" letter-spacing="0" word-spacing="0"/>
</svg>
